<svg width="300" height="100" viewBox="0 0 300 100" fill="none" xmlns="http://www.w3.org/2000/svg">
<path d="M25.5 11.63V6" stroke="black" stroke-width="1.5" stroke-linecap="round"/>
<path d="M23 8H28" stroke="black" stroke-width="1.5" stroke-linecap="round"/>
<path fill-rule="evenodd" clip-rule="evenodd" d="M25.5 25C25.5 25 30 17.5 28.5 14.5C28.5 14.5 27.5 12 25.5 12C23.5 12 22.5 14.5 22.5 14.5C21 17.5 25.5 25 25.5 25Z" fill="white" stroke="black" stroke-width="1.5"/>
<path fill-rule="evenodd" clip-rule="evenodd" d="M14.5 37C20 40.5 30 40.5 35.5 37V30C35.5 30 44.5 25.5 41.5 19.5C37.5 13 28 16 25.5 23.5C22 16 12.5 13 9.5 19.5C6.5 25.5 14.5 29.5 14.5 29.5V37Z" fill="white"/>
<path d="M25.5 23.5C28 16 37.5 13 41.5 19.5C44.5 25.5 35.5 30 35.5 30V37C30 40.5 20 40.5 14.5 37V29.5C14.5 29.5 6.5 25.5 9.5 19.5C12.5 13 22 16 25.5 23.5ZM25.5 23.5V27" stroke="black" stroke-width="1.5" stroke-linecap="round" stroke-linejoin="round"/>
<path d="M14.5 30C20 27 30 27 35.5 30" stroke="black" stroke-width="1.5" stroke-linecap="round" stroke-linejoin="round"/>
<path d="M14.5 33.5C20 30.5 30 30.5 35.5 33.5" stroke="black" stroke-width="1.5" stroke-linecap="round" stroke-linejoin="round"/>
<path d="M14.5 37C20 34 30 34 35.5 37" stroke="black" stroke-width="1.5" stroke-linecap="round" stroke-linejoin="round"/>
<path fill-rule="evenodd" clip-rule="evenodd" d="M61 14C61 14.5304 60.7893 15.0391 60.4142 15.4142C60.0391 15.7893 59.5304 16 59 16C58.4696 16 57.9609 15.7893 57.5858 15.4142C57.2107 15.0391 57 14.5304 57 14C57 13.4696 57.2107 12.9609 57.5858 12.5858C57.9609 12.2107 58.4696 12 59 12C59.5304 12 60.0391 12.2107 60.4142 12.5858C60.7893 12.9609 61 13.4696 61 14Z" fill="white" stroke="black" stroke-width="1.5" stroke-linecap="round" stroke-linejoin="round"/>
<path fill-rule="evenodd" clip-rule="evenodd" d="M77.5 9.5C77.5 10.0304 77.2893 10.5391 76.9142 10.9142C76.5391 11.2893 76.0304 11.5 75.5 11.5C74.9696 11.5 74.4609 11.2893 74.0858 10.9142C73.7107 10.5391 73.5 10.0304 73.5 9.5C73.5 8.96957 73.7107 8.46086 74.0858 8.08579C74.4609 7.71071 74.9696 7.5 75.5 7.5C76.0304 7.5 76.5391 7.71071 76.9142 8.08579C77.2893 8.46086 77.5 8.96957 77.5 9.5Z" fill="white" stroke="black" stroke-width="1.5" stroke-linecap="round" stroke-linejoin="round"/>
<path fill-rule="evenodd" clip-rule="evenodd" d="M94 14C94 14.5304 93.7893 15.0391 93.4142 15.4142C93.0391 15.7893 92.5304 16 92 16C91.4696 16 90.9609 15.7893 90.5858 15.4142C90.2107 15.0391 90 14.5304 90 14C90 13.4696 90.2107 12.9609 90.5858 12.5858C90.9609 12.2107 91.4696 12 92 12C92.5304 12 93.0391 12.2107 93.4142 12.5858C93.7893 12.9609 94 13.4696 94 14Z" fill="white" stroke="black" stroke-width="1.5" stroke-linecap="round" stroke-linejoin="round"/>
<path fill-rule="evenodd" clip-rule="evenodd" d="M69 10.5C69 11.0304 68.7893 11.5391 68.4142 11.9142C68.0391 12.2893 67.5304 12.5 67 12.5C66.4696 12.5 65.9609 12.2893 65.5858 11.9142C65.2107 11.5391 65 11.0304 65 10.5C65 9.96957 65.2107 9.46086 65.5858 9.08579C65.9609 8.71071 66.4696 8.5 67 8.5C67.5304 8.5 68.0391 8.71071 68.4142 9.08579C68.7893 9.46086 69 9.96957 69 10.5Z" fill="white" stroke="black" stroke-width="1.5" stroke-linecap="round" stroke-linejoin="round"/>
<path fill-rule="evenodd" clip-rule="evenodd" d="M86 11C86 11.5304 85.7893 12.0391 85.4142 12.4142C85.0391 12.7893 84.5304 13 84 13C83.4696 13 82.9609 12.7893 82.5858 12.4142C82.2107 12.0391 82 11.5304 82 11C82 10.4696 82.2107 9.96086 82.5858 9.58579C82.9609 9.21071 83.4696 9 84 9C84.5304 9 85.0391 9.21071 85.4142 9.58579C85.7893 9.96086 86 10.4696 86 11Z" fill="white" stroke="black" stroke-width="1.5" stroke-linecap="round" stroke-linejoin="round"/>
<path fill-rule="evenodd" clip-rule="evenodd" d="M62 28C70.5 26.5 83 26.5 89 28L91 16L84 27V13L78.5 26.5L75.5 11.5L72.5 26.5L67 12.5V27L60 16L62 28Z" fill="white" stroke="black" stroke-width="1.5" stroke-linejoin="round"/>
<path fill-rule="evenodd" clip-rule="evenodd" d="M62 28C62 30 63.5 30 64.5 32C65.5 33.5 65.5 33 65 35.5C63.5 36.5 63.5 38 63.5 38C62 39.5 64 40.5 64 40.5C70.5 41.5 80.5 41.5 87 40.5C87 40.5 88.5 39.5 87 38C87 38 87.5 36.5 86 35.5C85.5 33 85.5 33.5 86.5 32C87.5 30 89 30 89 28C80.5 26.5 70.5 26.5 62 28Z" fill="white" stroke="black" stroke-width="1.5" stroke-linejoin="round"/>
<path d="M64.5 32C68 31 83 31 86.5 32" stroke="black" stroke-width="1.5" stroke-linecap="round" stroke-linejoin="round"/>
<path d="M65 35.5C71 34.5 80 34.5 86 35.5" stroke="black" stroke-width="1.5" stroke-linecap="round" stroke-linejoin="round"/>
<path fill-rule="evenodd" clip-rule="evenodd" d="M112 37C115.39 36.03 122.11 37.43 125.5 35C128.89 37.43 135.61 36.03 139 37C139 37 140.65 37.54 142 39C141.32 39.97 140.35 39.99 139 39.5C135.61 38.53 128.89 39.96 125.5 38.5C122.11 39.96 115.39 38.53 112 39.5C110.646 39.99 109.677 39.97 109 39C110.354 37.06 112 37 112 37Z" fill="white" stroke="black" stroke-width="1.5" stroke-linejoin="round"/>
<path fill-rule="evenodd" clip-rule="evenodd" d="M118 33C120.5 35.5 130.5 35.5 133 33C133.5 31.5 133 31 133 31C133 28.5 130.5 27 130.5 27C136 25.5 136.5 15.5 125.5 11.5C114.5 15.5 115 25.5 120.5 27C120.5 27 118 28.5 118 31C118 31 117.5 31.5 118 33Z" fill="white" stroke="black" stroke-width="1.5" stroke-linejoin="round"/>
<path fill-rule="evenodd" clip-rule="evenodd" d="M128 9C128 9.66304 127.737 10.2989 127.268 10.7678C126.799 11.2366 126.163 11.5 125.5 11.5C124.837 11.5 124.201 11.2366 123.732 10.7678C123.263 10.2989 123 9.66304 123 9C123 8.33696 123.263 7.70107 123.732 7.23223C124.201 6.76339 124.837 6.5 125.5 6.5C126.163 6.5 126.799 6.76339 127.268 7.23223C127.737 7.70107 128 8.33696 128 9Z" fill="white" stroke="black" stroke-width="1.5" stroke-linejoin="round"/>
<path d="M120.5 27H130.5M118 31H133M125.5 16.5V21.5M123 19H128" stroke="black" stroke-width="1.5" stroke-linecap="round"/>
<path fill-rule="evenodd" clip-rule="evenodd" d="M174 11C184.5 12 190.5 19 190 40H167C167 31 177 33.5 175 19" fill="white"/>
<path d="M174 11C184.5 12 190.5 19 190 40H167C167 31 177 33.5 175 19" stroke="black" stroke-width="1.5" stroke-linecap="round" stroke-linejoin="round"/>
<path fill-rule="evenodd" clip-rule="evenodd" d="M176 19C176.38 21.91 170.45 26.37 168 28C165 30 165.18 32.34 163 32C161.958 31.06 164.41 28.96 163 29C162 29 163.19 30.23 162 31C161 31 157.997 32 158 27C158 25 164 15 164 15C164 15 165.89 13.1 166 11.5C165.27 10.506 165.5 9.5 165.5 8.5C166.5 7.5 168.5 11 168.5 11H170.5C170.5 11 171.28 9.008 173 8C174 8 174 11 174 11" fill="white"/>
<path d="M176 19C176.38 21.91 170.45 26.37 168 28C165 30 165.18 32.34 163 32C161.958 31.06 164.41 28.96 163 29C162 29 163.19 30.23 162 31C161 31 157.997 32 158 27C158 25 164 15 164 15C164 15 165.89 13.1 166 11.5C165.27 10.506 165.5 9.5 165.5 8.5C166.5 7.5 168.5 11 168.5 11H170.5C170.5 11 171.28 9.008 173 8C174 8 174 11 174 11" stroke="black" stroke-width="1.5" stroke-linecap="round" stroke-linejoin="round"/>
<path fill-rule="evenodd" clip-rule="evenodd" d="M161.5 26.5C161.5 26.6326 161.447 26.7598 161.354 26.8536C161.26 26.9473 161.133 27 161 27C160.867 27 160.74 26.9473 160.646 26.8536C160.553 26.7598 160.5 26.6326 160.5 26.5C160.5 26.3674 160.553 26.2402 160.646 26.1464C160.74 26.0527 160.867 26 161 26C161.133 26 161.26 26.0527 161.354 26.1464C161.447 26.2402 161.5 26.3674 161.5 26.5Z" fill="black" stroke="black" stroke-width="1.5" stroke-linecap="round" stroke-linejoin="round"/>
<path fill-rule="evenodd" clip-rule="evenodd" d="M166.933 16.75C166.734 17.0945 166.498 17.3986 166.276 17.5953C166.054 17.792 165.865 17.8653 165.75 17.799C165.635 17.7327 165.604 17.5323 165.663 17.2418C165.723 16.9513 165.868 16.5945 166.067 16.25C166.266 15.9055 166.502 15.6014 166.724 15.4047C166.946 15.208 167.135 15.1347 167.25 15.201C167.365 15.2673 167.396 15.4678 167.337 15.7582C167.277 16.0487 167.132 16.4055 166.933 16.75Z" fill="black" stroke="black" stroke-width="1.5" stroke-linecap="round" stroke-linejoin="round"/>
<path fill-rule="evenodd" clip-rule="evenodd" d="M212 40H239V37H212V40Z" fill="white" stroke="black" stroke-width="1.5" stroke-linejoin="round"/>
<path fill-rule="evenodd" clip-rule="evenodd" d="M215 37V33H236V37H215Z" fill="white" stroke="black" stroke-width="1.5" stroke-linejoin="round"/>
<path fill-rule="evenodd" clip-rule="evenodd" d="M214 15V10H218V12H223V10H228V12H233V10H237V15" fill="white"/>
<path d="M214 15V10H218V12H223V10H228V12H233V10H237V15" stroke="black" stroke-width="1.5" stroke-linejoin="round"/>
<path fill-rule="evenodd" clip-rule="evenodd" d="M237 15L234 18H217L214 15" fill="white"/>
<path d="M237 15L234 18H217L214 15" stroke="black" stroke-width="1.5" stroke-linecap="round" stroke-linejoin="round"/>
<path fill-rule="evenodd" clip-rule="evenodd" d="M234 18V30.5H217V18" fill="white"/>
<path d="M234 18V30.5H217V18" stroke="black" stroke-width="1.5"/>
<path fill-rule="evenodd" clip-rule="evenodd" d="M234 30.5L235.5 33H215.5L217 30.5" fill="white"/>
<path d="M234 30.5L235.5 33H215.5L217 30.5" stroke="black" stroke-width="1.5" stroke-linecap="round" stroke-linejoin="round"/>
<path d="M214 15H237" stroke="black" stroke-width="1.5" stroke-linecap="round"/>
<path d="M275 10C272.79 10 271 11.79 271 14C271 14.89 271.29 15.71 271.78 16.38C269.83 17.5 268.5 19.59 268.5 22C268.5 24.03 269.44 25.84 270.91 27.03C267.91 28.09 263.5 32.58 263.5 40.5H286.5C286.5 32.58 282.09 28.09 279.09 27.03C280.56 25.84 281.5 24.03 281.5 22C281.5 19.59 280.17 17.5 278.22 16.38C278.71 15.71 279 14.89 279 14C279 11.79 277.21 10 275 10Z" fill="white" stroke="black" stroke-width="1.5" stroke-linecap="round"/>
<path d="M25.5 61.63V56" stroke="black" stroke-width="1.5" stroke-linecap="round"/>
<path fill-rule="evenodd" clip-rule="evenodd" d="M25.5 75C25.5 75 30 67.5 28.5 64.5C28.5 64.5 27.5 62 25.5 62C23.5 62 22.5 64.5 22.5 64.5C21 67.5 25.5 75 25.5 75Z" fill="black" stroke="black" stroke-width="1.5"/>
<path fill-rule="evenodd" clip-rule="evenodd" d="M14.5 87C20 90.5 30 90.5 35.5 87V80C35.5 80 44.5 75.5 41.5 69.5C37.5 63 28 66 25.5 73.5C22 66 12.5 63 9.5 69.5C6.5 75.5 14.5 79.5 14.5 79.5V87Z" fill="black"/>
<path d="M25.5 73.5C28 66 37.5 63 41.5 69.5C44.5 75.5 35.5 80 35.5 80V87C30 90.5 20 90.5 14.5 87V79.5C14.5 79.5 6.5 75.5 9.5 69.5C12.5 63 22 66 25.5 73.5ZM25.5 73.5V77" stroke="black" stroke-width="1.5" stroke-linecap="round" stroke-linejoin="round"/>
<path d="M23 58H28" stroke="black" stroke-width="1.5" stroke-linecap="round"/>
<path d="M35 79.5C35 79.5 43.5 75.5 41.03 69.85C37.15 64 28 68 25.5 74.5M25.5 74.5L25.51 76.6M25.5 74.5C23 68 12.906 64 9.99702 69.85C7.50002 75.5 14.85 78.85 14.85 78.85" stroke="white" stroke-width="1.5" stroke-linecap="round" stroke-linejoin="round"/>
<path d="M14.5 80C20 77 30 77 35.5 80M14.5 83.5C20 80.5 30 80.5 35.5 83.5M14.5 87C20 84 30 84 35.5 87" stroke="white" stroke-width="1.5" stroke-linecap="round" stroke-linejoin="round"/>
<path d="M59 65.75C60.5188 65.75 61.75 64.5188 61.75 63C61.75 61.4812 60.5188 60.25 59 60.25C57.4812 60.25 56.25 61.4812 56.25 63C56.25 64.5188 57.4812 65.75 59 65.75Z" fill="black"/>
<path d="M67 62.75C68.5188 62.75 69.75 61.5188 69.75 60C69.75 58.4812 68.5188 57.25 67 57.25C65.4812 57.25 64.25 58.4812 64.25 60C64.25 61.5188 65.4812 62.75 67 62.75Z" fill="black"/>
<path d="M75.5 61.75C77.0188 61.75 78.25 60.5188 78.25 59C78.25 57.4812 77.0188 56.25 75.5 56.25C73.9812 56.25 72.75 57.4812 72.75 59C72.75 60.5188 73.9812 61.75 75.5 61.75Z" fill="black"/>
<path d="M84 62.75C85.5188 62.75 86.75 61.5188 86.75 60C86.75 58.4812 85.5188 57.25 84 57.25C82.4812 57.25 81.25 58.4812 81.25 60C81.25 61.5188 82.4812 62.75 84 62.75Z" fill="black"/>
<path d="M92 65.75C93.5188 65.75 94.75 64.5188 94.75 63C94.75 61.4812 93.5188 60.25 92 60.25C90.4812 60.25 89.25 61.4812 89.25 63C89.25 64.5188 90.4812 65.75 92 65.75Z" fill="black"/>
<path fill-rule="evenodd" clip-rule="evenodd" d="M62 77C70.5 75.5 83 75.5 89 77L91.5 64.5L84 76L83.7 61.9L78.5 75.5L75.5 61L72.5 75.5L67.3 61.9L67 76L59.5 64.5L62 77Z" fill="black" stroke="black" stroke-width="1.5" stroke-linejoin="round"/>
<path fill-rule="evenodd" clip-rule="evenodd" d="M62 77C62 79 63.5 79 64.5 81C65.5 82.5 65.5 82 65 84.5C63.5 85.5 63.5 87 63.5 87C62 88.5 64 89.5 64 89.5C70.5 90.5 80.5 90.5 87 89.5C87 89.5 88.5 88.5 87 87C87 87 87.5 85.5 86 84.5C85.5 82 85.5 82.5 86.5 81C87.5 79 89 79 89 77C80.5 75.5 70.5 75.5 62 77Z" fill="black" stroke="black" stroke-width="1.5" stroke-linejoin="round"/>
<path d="M64 89.5C71.4478 92.091 79.5522 92.091 87 89.5" stroke="black" stroke-width="1.5" stroke-linejoin="round"/>
<path d="M64 80C71.4478 77.409 79.5522 77.409 87 80" stroke="white" stroke-width="1.5" stroke-linecap="round" stroke-linejoin="round"/>
<path d="M65.5 82.5H85.5" stroke="white" stroke-width="1.5" stroke-linecap="round" stroke-linejoin="round"/>
<path d="M64.5 85.5C71.6427 87.8647 79.3573 87.8647 86.5 85.5" stroke="white" stroke-width="1.5" stroke-linecap="round" stroke-linejoin="round"/>
<path d="M63.5 88.5C71.25 91.3286 79.75 91.3286 87.5 88.5" stroke="white" stroke-width="1.5" stroke-linecap="round" stroke-linejoin="round"/>
<path fill-rule="evenodd" clip-rule="evenodd" d="M112 88C115.39 87.03 122.11 88.43 125.5 86C128.89 88.43 135.61 87.03 139 88C139 88 140.65 88.54 142 90C141.32 90.97 140.35 90.99 139 90.5C135.61 89.53 128.89 90.96 125.5 89.5C122.11 90.96 115.39 89.53 112 90.5C110.646 90.99 109.677 90.97 109 90C110.354 88.06 112 88 112 88Z" fill="black" stroke="black" stroke-width="1.5" stroke-linejoin="round"/>
<path fill-rule="evenodd" clip-rule="evenodd" d="M118 84C120.5 86.5 130.5 86.5 133 84C133.5 82.5 133 82 133 82C133 79.5 130.5 78 130.5 78C136 76.5 136.5 66.5 125.5 62.5C114.5 66.5 115 76.5 120.5 78C120.5 78 118 79.5 118 82C118 82 117.5 82.5 118 84Z" fill="black" stroke="black" stroke-width="1.5" stroke-linejoin="round"/>
<path fill-rule="evenodd" clip-rule="evenodd" d="M128 60C128 60.663 127.737 61.2989 127.268 61.7678C126.799 62.2366 126.163 62.5 125.5 62.5C124.837 62.5 124.201 62.2366 123.732 61.7678C123.263 61.2989 123 60.663 123 60C123 59.337 123.263 58.7011 123.732 58.2322C124.201 57.7634 124.837 57.5 125.5 57.5C126.163 57.5 126.799 57.7634 127.268 58.2322C127.737 58.7011 128 59.337 128 60Z" fill="black" stroke="black" stroke-width="1.5" stroke-linejoin="round"/>
<path d="M120.5 78H130.5M118 82H133M125.5 67.5V72.5M123 70H128" stroke="white" stroke-width="1.5" stroke-linecap="round"/>
<path fill-rule="evenodd" clip-rule="evenodd" d="M174 61C184.5 62 190.5 69 190 90H167C167 81 177 83.5 175 69" fill="black"/>
<path d="M174 61C184.5 62 190.5 69 190 90H167C167 81 177 83.5 175 69" stroke="black" stroke-width="1.5" stroke-linecap="round" stroke-linejoin="round"/>
<path fill-rule="evenodd" clip-rule="evenodd" d="M176 69C176.38 71.91 170.45 76.37 168 78C165 80 165.18 82.34 163 82C161.958 81.06 164.41 78.96 163 79C162 79 163.19 80.23 162 81C161 81 157.997 82 158 77C158 75 164 65 164 65C164 65 165.89 63.1 166 61.5C165.27 60.506 165.5 59.5 165.5 58.5C166.5 57.5 168.5 61 168.5 61H170.5C170.5 61 171.28 59.008 173 58C174 58 174 61 174 61" fill="black"/>
<path d="M176 69C176.38 71.91 170.45 76.37 168 78C165 80 165.18 82.34 163 82C161.958 81.06 164.41 78.96 163 79C162 79 163.19 80.23 162 81C161 81 157.997 82 158 77C158 75 164 65 164 65C164 65 165.89 63.1 166 61.5C165.27 60.506 165.5 59.5 165.5 58.5C166.5 57.5 168.5 61 168.5 61H170.5C170.5 61 171.28 59.008 173 58C174 58 174 61 174 61" stroke="black" stroke-width="1.5" stroke-linecap="round" stroke-linejoin="round"/>
<path fill-rule="evenodd" clip-rule="evenodd" d="M161.5 76.5C161.5 76.6326 161.447 76.7598 161.354 76.8536C161.26 76.9473 161.133 77 161 77C160.867 77 160.74 76.9473 160.646 76.8536C160.553 76.7598 160.5 76.6326 160.5 76.5C160.5 76.3674 160.553 76.2402 160.646 76.1464C160.74 76.0527 160.867 76 161 76C161.133 76 161.26 76.0527 161.354 76.1464C161.447 76.2402 161.5 76.3674 161.5 76.5Z" fill="white" stroke="white" stroke-width="1.5" stroke-linecap="round" stroke-linejoin="round"/>
<path fill-rule="evenodd" clip-rule="evenodd" d="M166.933 66.75C166.734 67.0945 166.498 67.3986 166.276 67.5953C166.054 67.792 165.865 67.8653 165.75 67.799C165.635 67.7327 165.604 67.5323 165.663 67.2418C165.723 66.9513 165.868 66.5945 166.067 66.25C166.266 65.9055 166.502 65.6014 166.724 65.4047C166.946 65.208 167.135 65.1347 167.25 65.201C167.365 65.2673 167.396 65.4678 167.337 65.7582C167.277 66.0487 167.132 66.4055 166.933 66.75Z" fill="white" stroke="white" stroke-width="1.5" stroke-linecap="round" stroke-linejoin="round"/>
<path fill-rule="evenodd" clip-rule="evenodd" d="M176.55 61.4L176.1 62.85L176.6 63C179.75 64 182.25 65.49 184.5 69.75C186.75 74.01 187.75 80.06 187.25 90L187.2 90.5H189.45L189.5 90C190 79.94 188.62 73.15 186.25 68.66C183.88 64.17 180.46 62.02 177.06 61.5L176.55 61.4Z" fill="white"/>
<path fill-rule="evenodd" clip-rule="evenodd" d="M211 90H238V87H211V90Z" fill="black" stroke="black" stroke-width="1.5" stroke-linejoin="round"/>
<path fill-rule="evenodd" clip-rule="evenodd" d="M214.5 83L216 80.5H233L234.5 83H214.5Z" fill="black" stroke="black" stroke-width="1.5" stroke-linejoin="round"/>
<path fill-rule="evenodd" clip-rule="evenodd" d="M214 87V83H235V87H214Z" fill="black" stroke="black" stroke-width="1.5" stroke-linejoin="round"/>
<path fill-rule="evenodd" clip-rule="evenodd" d="M216 80.5V67.5H233V80.5H216Z" fill="black" stroke="black" stroke-width="1.5"/>
<path fill-rule="evenodd" clip-rule="evenodd" d="M216 67.5L213 65H236L233 67.5H216Z" fill="black" stroke="black" stroke-width="1.5" stroke-linejoin="round"/>
<path fill-rule="evenodd" clip-rule="evenodd" d="M213 65V60H217V62H222V60H227V62H232V60H236V65H213Z" fill="black" stroke="black" stroke-width="1.5" stroke-linejoin="round"/>
<path d="M214 86.5H235" stroke="white" stroke-linecap="round"/>
<path d="M215 82.5H234" stroke="white" stroke-linecap="round"/>
<path d="M216 80.5H233" stroke="white" stroke-linecap="round"/>
<path d="M216 67.5H233" stroke="white" stroke-linecap="round"/>
<path d="M213 65H236" stroke="white" stroke-linecap="round"/>
<path d="M275 59C272.79 59 271 60.79 271 63C271 63.89 271.29 64.71 271.78 65.38C269.83 66.5 268.5 68.59 268.5 71C268.5 73.03 269.44 74.84 270.91 76.03C267.91 77.09 263.5 81.58 263.5 89.5H286.5C286.5 81.58 282.09 77.09 279.09 76.03C280.56 74.84 281.5 73.03 281.5 71C281.5 68.59 280.17 66.5 278.22 65.38C278.71 64.71 279 63.89 279 63C279 60.79 277.21 59 275 59Z" fill="black" stroke="black" stroke-width="1.5" stroke-linecap="round"/>
</svg>
